<?xml version="1.0" encoding="UTF-8"?>
<svg id="Laag_1" data-name="Laag 1" xmlns="http://www.w3.org/2000/svg" viewBox="0 0 100.04 100">
  <defs>
    <style>
      .cls-1 {
        fill: #e3025a;
      }
    </style>
  </defs>
  <path class="cls-1" d="M53.45,99.93c1.12-.08,2.22-.24,3.32-.39h0c-1.08,.18-2.2,.28-3.32,.39Z"/>
  <path class="cls-1" d="M56.77,99.54V63.31h12.98l2.03-13.15h-15.01v-7.21c0-5.46,1.78-10.32,6.93-10.32h8.18v-11.47c-1.43-.18-4.48-.63-10.25-.63-12.03,0-19.1,6.37-19.1,20.85v8.78h-12.38v13.15h12.38v36.13c1.61,.25,3.22,.46,4.9,.56C21.02,98.67,0,76.77,0,50.05S22.39,0,50.02,0s50.02,22.42,50.02,50.05c0,25.3-18.84,46.2-43.27,49.49Z"/>
</svg>