<?xml version="1.0" encoding="UTF-8"?>
<svg id="Laag_1" data-name="Laag 1" xmlns="http://www.w3.org/2000/svg" viewBox="0 0 101.57 100">
  <defs>
    <style>
      .cls-1 {
        fill: #e3025a;
      }
    </style>
  </defs>
  <path class="cls-1" d="M50.78,0C22.74,0,0,22.74,0,50.78c0,23.8,16.39,43.71,38.48,49.22-.24-.69-.39-1.48-.39-2.47v-8.68h-6.38c-3.47,0-6.56-1.49-8.06-4.27-1.66-3.09-1.95-7.8-6.07-10.69-1.22-.96-.29-2.06,1.12-1.91,2.6,.74,4.76,2.52,6.79,5.17,2.02,2.65,2.98,3.25,6.75,3.25,1.83,0,4.57-.11,7.16-.51,1.39-3.53,3.79-6.77,6.72-8.3-16.91-1.74-24.98-10.15-24.98-21.57,0-4.92,2.09-9.67,5.65-13.68-1.17-3.98-2.64-12.09,.45-15.18,7.61,0,12.21,4.93,13.31,6.27,3.79-1.3,7.96-2.04,12.33-2.04s8.57,.74,12.37,2.04c1.09-1.32,5.7-6.28,13.32-6.28,3.1,3.09,1.61,11.24,.43,15.21,3.54,4,5.62,8.74,5.62,13.65,0,11.41-8.06,19.82-24.94,21.57,4.65,2.42,8.04,9.24,8.04,14.37v11.57c0,.44-.1,.76-.15,1.13,19.79-6.94,34-25.73,34-47.88C101.57,22.74,78.83,0,50.78,0Z"/>
</svg>