<?xml version="1.0" encoding="UTF-8"?>
<svg id="Laag_1" data-name="Laag 1" xmlns="http://www.w3.org/2000/svg" viewBox="0 0 100 100">
  <defs>
    <style>
      .cls-1 {
        fill: #e3025a;
      }
    </style>
  </defs>
  <g>
    <path class="cls-1" d="M71.43,100H28.57c-16.02,0-28.57-12.55-28.57-28.57V28.57C0,12.55,12.55,0,28.57,0h42.86c16.02,0,28.57,12.55,28.57,28.57v42.86c0,16.02-12.55,28.57-28.57,28.57ZM28.57,7.14c-12.02,0-21.43,9.41-21.43,21.43v42.86c0,12.02,9.41,21.43,21.43,21.43h42.86c12.02,0,21.43-9.41,21.43-21.43V28.57c0-12.02-9.41-21.43-21.43-21.43H28.57Z"/>
    <circle class="cls-1" cx="75" cy="21.43" r="3.57"/>
  </g>
  <path class="cls-1" d="M50,75c-13.78,0-25-11.22-25-25s11.22-25,25-25,25,11.22,25,25-11.22,25-25,25Zm0-42.86c-9.85,0-17.86,8.01-17.86,17.86s8.01,17.86,17.86,17.86,17.86-8.01,17.86-17.86-8.01-17.86-17.86-17.86Z"/>
</svg>