<?xml version="1.0" encoding="UTF-8"?>
<svg id="Laag_1" data-name="Laag 1" xmlns="http://www.w3.org/2000/svg" viewBox="0 0 99.96 100">
  <defs>
    <style>
      .cls-1 {
        fill: #e3025a;
      }
    </style>
  </defs>
  <path class="cls-1" d="M86.07,0H13.86C6.22,0,0,6.22,0,13.93V86.11c0,4.3,1.96,8.19,5.04,10.71,2.41,2,5.48,3.19,8.82,3.19H86.07c7.71,0,13.89-6.22,13.89-13.89V13.93c0-7.71-6.19-13.93-13.89-13.93ZM30.53,88.66h-13.86V41.46h13.86v47.2Zm-6.97-52.76h-.07c-4.19,0-6.82-3.07-6.82-6.97s2.74-6.93,6.97-6.93,6.82,3,6.89,6.93c0,3.89-2.67,6.97-6.97,6.97Zm59.76,52.76h-13.93v-25.27c0-6.11-3.37-10.26-8.82-10.26-4.19,0-6.45,2.78-7.52,5.52-.44,.96-.3,3.67-.3,5.04v24.97h-13.89V41.46h13.89v7.26c2-3.11,5.15-7.26,13.15-7.26,9.93,0,17.41,6.22,17.41,20.19v27.01Z"/>
</svg>