<?xml version="1.0" encoding="UTF-8"?>
<svg id="Laag_1" data-name="Laag 1" xmlns="http://www.w3.org/2000/svg" viewBox="0 0 100 80.55">
  <defs>
    <style>
      .cls-1 {
        fill: #e3025a;
      }
    </style>
  </defs>
  <path class="cls-1" d="M100,9.52c-3.67,1.63-7.63,2.71-11.8,3.23,4.24-2.52,7.5-6.53,9.03-11.27-3.97,2.32-8.36,4.03-13.04,4.93-3.73-3.96-9.06-6.41-14.96-6.41-11.33,0-20.52,9.1-20.52,20.33,0,1.59,.19,3.14,.54,4.64C32.21,24.11,17.09,16.01,6.97,3.71c-1.78,3.01-2.78,6.52-2.78,10.24,0,7.06,3.61,13.27,9.12,16.93-3.36-.1-6.53-1.04-9.3-2.54v.24c0,9.86,7.07,18.08,16.45,19.95-1.71,.47-3.52,.73-5.39,.73-1.32,0-2.62-.15-3.87-.37,2.61,8.06,10.19,13.95,19.16,14.13-7.02,5.44-15.87,8.7-25.48,8.7-1.66,0-3.29-.09-4.89-.29,9.09,5.75,19.87,9.12,31.45,9.12,37.73,0,58.38-30.99,58.38-57.87,0-.88-.03-1.76-.07-2.62,4.03-2.84,7.5-6.43,10.24-10.53"/>
</svg>