<?xml version="1.0" encoding="utf-8"?>
<!-- Generator: Adobe Illustrator 26.5.0, SVG Export Plug-In . SVG Version: 6.00 Build 0)  -->
<svg version="1.1" id="Laag_1" xmlns="http://www.w3.org/2000/svg" xmlns:xlink="http://www.w3.org/1999/xlink" x="0px" y="0px"
	 viewBox="0 0 434 499.9" style="enable-background:new 0 0 434 499.9;" xml:space="preserve">
<style type="text/css">
	.st0{fill:#FFFFFF;}
</style>
<g>
	<polygon class="st0" points="164.5,418.9 201.9,381.9 210.5,396.5 189.9,432.1 166.8,448.7 172.2,455.7 139.1,482.5 138.9,481 
		138.9,464.4 120.8,462.3 102.1,472.1 98.9,468.4 164.4,419 	"/>
	<polygon class="st0" points="171.2,449.4 191.3,435 220.5,448.3 230.1,456.8 225.9,461.8 204.9,471.6 175.8,470.2 145.1,495 
		139.6,487.4 139.5,486.1 176.5,456.2 	"/>
	<polygon class="st0" points="203.9,379.2 211.8,354.2 235.4,349.7 235.4,359.9 267,359.9 274.8,363.5 269.3,389.8 252.5,409.5 
		254.2,428.8 246.2,438.8 233.6,452.7 232.1,454.4 222.2,445.6 193.3,432.5 214.1,396.5 	"/>
	<path class="st0" d="M160.7,317.8l48.1,35.6l-7.9,25.2l-38.4,38l-65.7,49.5L74,482.2L21.5,482l-11.8-1.4v-14.9l12.6-46l16.5-14.9
		l16.5-36.9v-21.6l49.5-25.1l-5.5-26.7l13.4-11.8l-13-28.7l37.1-30.6v0c3.8,0.7,8,1.5,12.4,2.3l-8.4,36.7l21.7,5.2L160.7,317.8z"/>
	<path class="st0" d="M368.4,245.2h23.3l-1.6,1.2l-19.6,11.9L353.3,282l-0.7,13.1l-8.6-8.9l-11.3,6.5l-15-11.9l-5.8,6.5l39.7,36
		l4.1-2.6l2.3,2.1l-12.7,10l-23-17.7l-15.5,23l-8.6,4.1l-5.6-3.3l-14,8.3l0.9,6.7l-4.9,2.9l3.9,2.9l-2.1,1.4l-8.8-4.1h-29.2V346
		l-27.5,5.2l-47.1-34.9l1.7-51.3l-21.2-5l7.7-33.8c35.6,6.8,85.2,17.4,85.8,17.5l1.4,0.3l4.2-15.7l25.4,5.5l27.2,17.5l10.3-5.7
		l1.7-7.5l30.5-3.9L368.4,245.2z"/>
	<path class="st0" d="M223.5,166.7l10.4,10.3l-7.2,21.8l14,27.8v0l-3.7,13.7c-9.9-2.1-68.8-14.5-100.3-20.1L105.3,193l17.6-18.2
		l9.4-23.7l31.8-24.6l-4.7-9.4l3.7-2.4l24.7,3.2l1.6,33.6L223.5,166.7z"/>
	<polygon class="st0" points="265,168 273.4,168 264.7,193.2 264.7,218.5 268.6,222.4 268.1,230.5 243.5,225.1 230.1,198.6 
		236.6,178.6 242.6,180.8 	"/>
	<polygon class="st0" points="294.8,127.5 286.1,151.6 274.9,164.9 264.1,164.9 242.3,177.5 236.5,175.3 225.3,164.2 192.3,149.4 
		190.8,117 213.1,102.2 216.3,91.2 220.7,92.9 222.3,92.2 232.4,110.1 	"/>
	<polygon class="st0" points="288,154.2 306.2,159 307.5,192.5 305.4,198.9 305.4,236.5 303.8,243.5 296.3,247.7 271.1,231.6 
		271.8,221.2 267.8,217.2 267.8,193.7 277,167.2 	"/>
	<polygon class="st0" points="234.5,107.5 225.2,91 227.1,90.1 243.9,67.6 247,53.7 256.5,46.3 272.5,19.3 283.7,11.4 294.1,15.8 
		309.5,4.9 313.2,11.9 306.2,22.1 308.5,23 312.2,44.5 332.3,36.3 342.1,48 328,65 327.6,83.3 312.3,105.4 340.9,118.8 354.1,109 
		363.5,114.5 343.6,147.5 326.4,175 314.7,174 313,157.7 289.5,151.4 298.9,125.5 	"/>
	<polygon class="st0" points="314.6,40.2 311.8,24.4 353,23.3 353,7.4 360.8,5.8 360.8,24.9 368.2,40.9 368.2,59.8 377.1,69 
		408.1,136 403.1,146.6 387.9,150.8 387.9,150.8 365.9,156.9 347.8,146.4 367.7,113.4 353.9,105.3 340.6,115.2 316.9,104.1 
		330.7,84.3 331,66.1 346.2,48 333.2,32.6 	"/>
	<polygon class="st0" points="408.8,220.4 395.8,242.1 368.9,242.1 339.1,231.1 308.5,234.9 308.5,199.4 310.6,192.9 309.3,159.9 
		310.2,160.1 311.9,176.8 328,178.3 346.2,149.1 365.4,160.5 388.8,154.3 394.9,176.5 372,180 378.3,194.4 385.4,192.1 380.5,216.9 
			"/>
	<polygon class="st0" points="300,349.4 302.5,351.7 297,355.2 299,360.9 290.7,375.7 308,408.6 288.2,409.4 285.6,429.8 
		276.7,440.8 268.3,442.6 250.3,440.1 249.3,439.8 257.4,429.7 255.7,410.5 272.1,391.2 278,363.6 284,359.7 280.3,356.9 283,355.3 
		282,348.6 292.7,342.3 298.1,345.5 306.1,341.8 305.8,344.9 	"/>
	<polygon class="st0" points="304.8,349.6 308.7,346.6 309.4,339.7 309.4,339.7 323,319.4 342.8,334.6 348.9,339.4 365.9,328.6 
		371.7,335.4 355.2,346.7 353.9,347.4 356.4,355.7 344.9,364.8 340,353.8 328.9,346.1 310.1,354.7 	"/>
	<polygon class="st0" points="396.3,410.5 396.6,401.9 381.6,399.5 378.4,404.7 369.4,397.5 364,402.8 364.3,380.6 349.3,380.3 
		342.3,396.3 331.3,395.3 311.4,408.4 294.2,375.7 302.4,361.2 300.7,356.5 304.8,353.9 309.5,358.3 328.5,349.6 337.5,355.8 
		343.7,369.7 359.9,356.8 357.6,349.3 359.1,350.8 376,351.6 388.9,358.1 385.3,371.7 397.5,362.3 418.1,374.7 414.1,383.4 
		422.3,390.4 416.2,396.5 424.4,408.2 	"/>
</g>
</svg>
