<?xml version="1.0" encoding="utf-8"?>
<!-- Generator: Adobe Illustrator 26.5.0, SVG Export Plug-In . SVG Version: 6.00 Build 0)  -->
<svg version="1.1" id="Laag_1" xmlns="http://www.w3.org/2000/svg" xmlns:xlink="http://www.w3.org/1999/xlink" x="0px" y="0px"
	 viewBox="0 0 408 80" style="enable-background:new 0 0 408 80;" xml:space="preserve">
<style type="text/css">
	.st0{fill:#FFFFFF;}
	.st1{fill:url(#SVGID_1_);}
</style>
<g>
	<path class="st0" d="M202.8,73.2c-0.7,0-1.3-0.6-1.3-1.3V7.9c0-0.7,0.6-1.3,1.3-1.3c0.7,0,1.3,0.6,1.3,1.3v63.9
		C204.1,72.6,203.6,73.2,202.8,73.2z"/>
</g>
<radialGradient id="SVGID_1_" cx="96.5439" cy="42.095" r="69.4975" gradientTransform="matrix(1 0 0 -1 0 82)" gradientUnits="userSpaceOnUse">
	<stop  offset="0.35" style="stop-color:#E5316C"/>
	<stop  offset="1" style="stop-color:#B6006C"/>
</radialGradient>
<path class="st1" d="M124.3,20.2l-7.6,13.1c-1.6-4.8-4.8-9.1-9.6-11.8c-2-1.1-4-1.9-6.1-2.4l-4.5-9l-4.5,9
	c-5.7,1.2-10.8,4.7-13.9,10.1L56.5,66.8C53,72.9,45.2,75,39.1,71.5c-2-1.2-3.6-2.8-4.7-4.7L5.2,16.2c-1.8-3.1-0.7-6.9,2.3-8.7
	s6.9-0.7,8.7,2.3l28.6,49.5c0.3,0.5,1,0.5,1.2,0l21-36.4c9.4-16.3,30.2-21.8,46.5-12.4C117.9,13,121.5,16.3,124.3,20.2z M187.9,63.6
	L158.7,13c-1.1-1.9-2.6-3.5-4.7-4.7c-6.1-3.5-13.9-1.4-17.4,4.7l-21.7,37.5c-3.1,5.4-8.2,8.9-13.9,10.1l-4.5,9l-4.5-9
	c-2.1-0.5-4.2-1.2-6.1-2.4c-4.7-2.7-8-7-9.6-11.8l-7.5,13.1c2.8,3.9,6.3,7.2,10.7,9.8c16.3,9.4,37.1,3.8,46.5-12.5l21-36.4
	c0.3-0.5,0.9-0.5,1.2,0L176.9,70c1.8,3.1,5.7,4.1,8.7,2.3C188.6,70.5,189.7,66.6,187.9,63.6z"/>
<g>
	<g>
		<path class="st0" d="M234,13.9c0.2-0.7,1-1.1,1.7-0.8c0.7,0.2,1,1.1,0.8,1.8l-6.9,18.6c-0.6,1.5-1.5,2.3-2.8,2.3
			c-1.3,0-2.2-0.8-2.8-2.3L217,14.8c-0.2-0.7,0.1-1.5,0.8-1.7s1.4,0.1,1.7,0.8l6.9,19c0.1,0.1,0.2,0.3,0.4,0.3s0.4-0.2,0.4-0.3
			L234,13.9z"/>
		<path class="st0" d="M251.1,26.3c0,1.1-0.6,1.8-1.9,1.8h-9.5v0.5c0,3,1.9,4.7,4.7,4.7c1.1,0,2.4-0.3,3.9-0.8
			c1.1-0.4,1.8,0.3,1.8,1c0,0.4-0.2,0.8-0.7,1.1c-1,0.6-3.2,1-5.1,1c-4.4,0-7-2.8-7.2-6.8c-0.1-1.2-0.1-2.8,0-3.8
			c0.4-4.1,3.1-6.6,7-6.6c4.2,0,6.8,2.9,6.8,6.9L251.1,26.3L251.1,26.3z M248.2,26c0.2,0,0.4-0.1,0.4-0.4c0.2-2.9-1.6-4.8-4.3-4.8
			c-3.1,0-4.7,2-4.6,5.2H248.2z"/>
		<path class="st0" d="M264.6,20c0,0.5-0.4,1.2-1.3,1.2c-0.6,0-1.4-0.2-2.5-0.2c-1.8,0-2.6,0.9-2.6,2.9v10.4c0,0.7-0.6,1.3-1.3,1.3
			c-0.7,0-1.3-0.6-1.3-1.3V23.5c0-3.1,1.8-5,5.2-5c1.1,0,2.2,0.2,2.8,0.4C264.3,19,264.6,19.4,264.6,20z"/>
		<path class="st0" d="M282,20.5l-4.9,13c-0.5,1.3-1.4,2-2.5,2c-1.1,0-1.9-0.7-2.4-2l-4.9-13.1c-0.4-1,0.3-1.8,1.2-1.8
			c0.5,0,1,0.4,1.2,0.9l4.8,13.2c0,0.1,0.1,0.1,0.2,0.1s0.1,0,0.2-0.1l4.7-13c0.2-0.6,0.7-1,1.3-1C281.7,18.7,282.3,19.6,282,20.5z"
			/>
		<path class="st0" d="M299,24.7c0.1,1.3,0.1,3.2,0,4.5c-0.2,3.7-3.1,6.4-7.1,6.4c-3.9,0-6.9-2.7-7.1-6.4c-0.1-1.3-0.1-3.2,0-4.5
			c0.2-3.7,3.2-6.3,7.1-6.3C295.9,18.4,298.8,21,299,24.7z M287.4,24.9c-0.1,1.1-0.1,3.1,0,4.2c0.2,2.5,1.9,4.2,4.5,4.2
			s4.3-1.7,4.5-4.2c0.1-1.1,0.1-3,0-4.2c-0.2-2.4-1.8-4.1-4.5-4.1S287.6,22.6,287.4,24.9z"/>
		<path class="st0" d="M317,26.3c0,1.1-0.6,1.8-1.9,1.8h-9.5v0.5c0,3,1.9,4.7,4.7,4.7c1.1,0,2.4-0.3,3.9-0.8c1.1-0.4,1.8,0.3,1.8,1
			c0,0.4-0.2,0.8-0.7,1.1c-1,0.6-3.2,1-5,1c-4.4,0-7-2.8-7.2-6.8c-0.1-1.2-0.1-2.8,0-3.8c0.4-4.1,3.1-6.6,7-6.6
			c4.2,0,6.8,2.9,6.8,6.9V26.3z M314.1,26c0.2,0,0.4-0.1,0.4-0.4c0.2-2.9-1.6-4.8-4.3-4.8c-3.1,0-4.7,2-4.6,5.2H314.1z"/>
		<path class="st0" d="M330.5,20c0,0.5-0.4,1.2-1.3,1.2c-0.6,0-1.4-0.2-2.5-0.2c-1.8,0-2.6,0.9-2.6,2.9v10.4c0,0.7-0.6,1.3-1.3,1.3
			c-0.7,0-1.3-0.6-1.3-1.3V23.5c0-3.1,1.8-5,5.2-5c1.1,0,2.2,0.2,2.8,0.4C330.2,19,330.5,19.4,330.5,20z"/>
		<path class="st0" d="M342.5,20c0,0.5-0.4,1.2-1.3,1.2c-0.6,0-1.4-0.2-2.5-0.2c-1.8,0-2.6,0.9-2.6,2.9v10.4c0,0.7-0.6,1.3-1.3,1.3
			c-0.7,0-1.3-0.6-1.3-1.3V23.5c0-3.1,1.8-5,5.2-5c1.1,0,2.2,0.2,2.8,0.4C342.2,19,342.5,19.4,342.5,20z"/>
		<path class="st0" d="M358.6,26.3c0,1.1-0.6,1.8-1.9,1.8h-9.5v0.5c0,3,1.9,4.7,4.7,4.7c1.1,0,2.4-0.3,3.9-0.8
			c1.1-0.4,1.8,0.3,1.8,1c0,0.4-0.2,0.8-0.7,1.1c-1,0.6-3.2,1-5,1c-4.4,0-7-2.8-7.2-6.8c-0.1-1.2-0.1-2.8,0-3.8
			c0.4-4.1,3.1-6.6,7-6.6c4.2,0,6.8,2.9,6.8,6.9V26.3z M355.7,26c0.2,0,0.4-0.1,0.4-0.4c0.2-2.9-1.6-4.8-4.3-4.8
			c-3.1,0-4.7,2-4.6,5.2H355.7z"/>
		<path class="st0" d="M376.5,34.2c0,4.3-2.6,7.1-7.9,7.1c-1,0-2.2-0.1-3.6-0.3c-0.6-0.1-1.1-0.5-1.1-1.2c0-0.7,0.5-1.4,1.5-1.2
			c1.2,0.2,2.3,0.4,3.3,0.4c3.6,0,5.3-1.7,5.3-4.8c-1.1,0.5-2.8,1.1-4.7,1.1c-3.9,0-6.3-2.6-6.5-6.3c-0.1-1.2-0.1-2.8,0-4
			c0.2-3.8,2.8-6.4,6.6-6.4c3.3,0,5.8,1.2,6.6,1.9c0.4,0.2,0.5,0.6,0.5,1.1L376.5,34.2L376.5,34.2z M365.2,25c-0.1,1.1,0,2.6,0,3.7
			c0.2,2.5,1.5,4.1,4,4.1s4-0.8,4.6-1.3V22c-0.1-0.1-1.8-1.1-4.3-1.1C366.7,20.9,365.4,22.6,365.2,25z"/>
		<path class="st0" d="M383.1,16.1c-0.9,0-1.6-0.8-1.6-1.6c0-0.9,0.7-1.6,1.6-1.6c0.9,0,1.6,0.7,1.6,1.6
			C384.7,15.4,384,16.1,383.1,16.1z M384.4,20v14.2c0,0.8-0.5,1.3-1.3,1.3c-0.7,0-1.3-0.6-1.3-1.3V20c0-0.7,0.5-1.3,1.3-1.3
			S384.4,19.3,384.4,20z"/>
		<path class="st0" d="M404,24.7c0.1,1.3,0.1,3.2,0,4.5c-0.2,3.7-3.1,6.4-7.1,6.4c-3.9,0-6.9-2.7-7.1-6.4c-0.1-1.3-0.1-3.2,0-4.5
			c0.2-3.7,3.2-6.3,7.1-6.3C400.8,18.4,403.7,21,404,24.7z M392.4,24.9c-0.1,1.1-0.1,3.1,0,4.2c0.2,2.5,1.9,4.2,4.5,4.2
			s4.3-1.7,4.5-4.2c0.1-1.1,0.1-3,0-4.2c-0.2-2.4-1.8-4.1-4.5-4.1S392.5,22.6,392.4,24.9z"/>
	</g>
	<g>
		<path class="st0" d="M231.9,59.3h-10.1l-2.4,6.6c-0.2,0.7-1,1-1.7,0.7c-0.7-0.2-0.9-1.1-0.7-1.7l6.6-18.4c0.6-1.7,1.8-2.4,3.3-2.4
			c1.4,0,2.7,0.8,3.2,2.4l6.6,18.4c0.2,0.6-0.1,1.4-0.7,1.7s-1.5-0.1-1.7-0.7L231.9,59.3z M222.7,56.8h8.4l-3.3-9.5
			c-0.1-0.4-0.4-0.6-0.8-0.6c-0.4,0-0.7,0.2-0.8,0.6L222.7,56.8z"/>
		<path class="st0" d="M262.4,65.5c0,0.8-0.5,1.3-1.3,1.3c-0.7,0-1.3-0.6-1.3-1.3v-9.1c0-2.9-1.3-4.2-3.6-4.2c-1.8,0-3,0.8-3.6,1.7
			v11.6c0,0.8-0.5,1.3-1.3,1.3c-0.7,0-1.3-0.6-1.3-1.3v-9.4c0-2.7-1.4-3.9-3.6-3.9c-2.5,0-3.5,1-3.6,1v12.2c0,0.8-0.5,1.3-1.3,1.3
			c-0.7,0-1.3-0.6-1.3-1.3V52.7c0-0.6,0.2-0.9,0.7-1.2c1.2-0.9,3.3-1.7,5.5-1.7c2.3,0,3.9,0.7,4.9,1.9c1-0.8,2.4-1.9,5-1.9
			c4.4,0,6.1,2.3,6.1,6.5L262.4,65.5L262.4,65.5z"/>
		<path class="st0" d="M278.9,61.9c0,3.1-2.5,5.1-6.2,5.1c-2.4,0-4.2-0.6-5.6-1.8c-0.5-0.4-0.6-1.2-0.2-1.7c0.4-0.5,1.1-0.7,1.8-0.2
			c1.1,0.8,2.1,1.4,4.4,1.4c2.2,0,3.4-1.1,3.4-2.6c0-1.1-0.7-1.8-2.5-2.3c-1.1-0.2-1.1-0.2-2.3-0.5c-3-0.8-4.5-2.1-4.5-4.5
			c0-3,2.4-4.9,5.9-4.9c1.8,0,3.6,0.6,4.5,1.4c0.6,0.5,0.5,1.4,0.2,1.8c-0.4,0.5-1.1,0.5-1.7,0.2c-1-0.6-2-1-3.1-1
			c-2.2,0-3.3,0.9-3.3,2.5c0,1,0.6,1.7,2.5,2.2c1,0.3,2.1,0.5,2.6,0.6C277.4,58.2,278.9,59.6,278.9,61.9z"/>
		<path class="st0" d="M287.9,67c-3.4,0-4.9-2.2-4.9-5.2V48c0-0.7,0.6-1.3,1.3-1.3c0.7,0,1.3,0.6,1.3,1.3v2.6h4.8
			c0.6,0,1.2,0.5,1.2,1.2s-0.6,1.2-1.2,1.2h-4.8v9c0,1.6,0.7,2.8,2.4,2.8c0.9,0,1.8-0.3,2.5-0.6c1-0.2,1.6,0.4,1.6,1.2
			c0,0.6-0.3,1-1,1.2C290.3,66.8,289.1,67,287.9,67z"/>
		<path class="st0" d="M309.1,57.7c0,1.1-0.6,1.8-1.9,1.8h-9.5V60c0,3,1.9,4.7,4.7,4.7c1.1,0,2.4-0.3,3.9-0.8c1.1-0.4,1.8,0.3,1.8,1
			c0,0.4-0.2,0.8-0.7,1.1c-1,0.6-3.2,1-5,1c-4.4,0-7-2.8-7.2-6.8c-0.1-1.2-0.1-2.8,0-3.8c0.4-4.1,3.1-6.6,7-6.6
			c4.2,0,6.8,2.9,6.8,6.9V57.7z M306.2,57.3c0.2,0,0.4-0.1,0.4-0.4c0.2-2.9-1.6-4.8-4.3-4.8c-3.1,0-4.7,2-4.6,5.2
			C297.7,57.3,306.2,57.3,306.2,57.3z"/>
		<path class="st0" d="M322.6,51.4c0,0.5-0.4,1.2-1.3,1.2c-0.6,0-1.4-0.2-2.5-0.2c-1.8,0-2.6,0.9-2.6,2.9v10.4
			c0,0.7-0.6,1.3-1.3,1.3c-0.7,0-1.3-0.6-1.3-1.3V54.9c0-3.1,1.8-5,5.2-5c1.1,0,2.2,0.2,2.8,0.3C322.3,50.3,322.6,50.8,322.6,51.4z"
			/>
		<path class="st0" d="M331.8,49.8c1.7,0,3.4,0.5,4.6,1v-5.3c0-0.7,0.6-1.3,1.3-1.3c0.8,0,1.3,0.6,1.3,1.3v18.6
			c0,0.4-0.1,0.7-0.5,1.1c-0.8,0.5-3.4,1.9-6.2,1.9c-4.2,0-6.7-2.5-7-6.4c-0.1-1.1-0.1-3.3,0-4.5C325.5,52.2,327.8,49.8,331.8,49.8z
			 M332.2,64.6c1.5,0,3.5-0.8,4.2-1.3v-10c-0.8-0.4-2.6-1.1-4.5-1.1c-2.7,0-4,1.4-4.2,4c-0.1,1-0.1,3.1,0,4.2
			C328,63.2,329.5,64.6,332.2,64.6z"/>
		<path class="st0" d="M356.8,64.2c0,0.5-0.1,0.8-0.5,1.1c-0.9,0.6-3.4,1.8-6.5,1.8c-4.2,0-6.4-2.2-6.4-5.4c0-2.8,2.1-5.1,6.4-5.1
			c1.5,0,2.8,0.2,4.4,0.7v-1.3c0-2.6-1.3-3.7-4-3.7c-1.5,0-2.9,0.5-3.8,0.8c-1.1,0.4-1.8-0.2-1.8-1c0-0.4,0.2-0.9,0.8-1.2
			c1-0.5,2.9-1,5-1c3.8,0,6.2,1.8,6.2,5.9L356.8,64.2L356.8,64.2z M354.3,63.5v-4.2c-1.6-0.4-2.8-0.7-4.4-0.7c-2.2,0-3.8,1-3.8,2.9
			c0,2,1.3,3.1,4.1,3.1C352.7,64.7,354,63.8,354.3,63.5z"/>
		<path class="st0" d="M384.3,65.5c0,0.8-0.5,1.3-1.3,1.3c-0.7,0-1.3-0.6-1.3-1.3v-9.1c0-2.9-1.3-4.2-3.6-4.2c-1.8,0-3,0.8-3.6,1.7
			v11.6c0,0.8-0.5,1.3-1.3,1.3c-0.7,0-1.3-0.6-1.3-1.3v-9.4c0-2.7-1.4-3.9-3.6-3.9c-2.5,0-3.5,1-3.6,1v12.2c0,0.8-0.5,1.3-1.3,1.3
			c-0.7,0-1.3-0.6-1.3-1.3V52.7c0-0.6,0.2-0.9,0.7-1.2c1.2-0.9,3.3-1.7,5.5-1.7c2.3,0,3.9,0.7,4.9,1.9c1-0.8,2.4-1.9,5-1.9
			c4.4,0,6.1,2.3,6.1,6.5L384.3,65.5L384.3,65.5z"/>
	</g>
</g>
</svg>
